<svg xmlns="http://www.w3.org/2000/svg" viewBox="0 0 30.91 33.9">
  <defs>
    <style>
      .a {
        fill: #f2f2f2;
      }

      .b {
        fill: #bfbfbf;
      }

      .c {
        fill: #d9d9d9;
      }
    </style>
  </defs>
  <title>logo</title>
  <g>
    <path class="a" d="M20.06,9.49C18.5,5,23.06.14,26.82,0,29.07,1.17,31,4.26,30.91,8.44,30.61,13.59,27,18,23,22.13c-.23-5-1.28-8.17-2.94-12.64"/>
    <path class="b" d="M11.21,33.9A16.45,16.45,0,0,1,14.65,22a25.29,25.29,0,0,0,2.27-3.38,13.31,13.31,0,0,1,5.5,4.4c-.23,3.54-2.84,10-11.21,10.93"/>
    <path class="c" d="M8,14.78C1.38,12.92-.26,7.07,0,3.13,6.5.51,13.47,3.19,17.49,8.79a27.83,27.83,0,0,1,4.94,13.35A15.54,15.54,0,0,0,14.94,17c-2.12-.79-4.09-1.31-6.9-2.17"/>
  </g>
</svg>
